<?xml version="1.0" encoding="utf-8"?>
<!-- Generator: Adobe Illustrator 16.0.0, SVG Export Plug-In . SVG Version: 6.00 Build 0)  -->
<!DOCTYPE svg PUBLIC "-//W3C//DTD SVG 1.1//EN" "http://www.w3.org/Graphics/SVG/1.1/DTD/svg11.dtd">
<svg version="1.1" id="Layer_1" xmlns="http://www.w3.org/2000/svg" xmlns:xlink="http://www.w3.org/1999/xlink" x="0px" y="0px"
	 width="180px" height="37px" viewBox="31.81 5.62 180 37" enable-background="new 31.81 5.62 180 37" xml:space="preserve">
<g>
	<g>
		<g>
			<defs>
				<path id="SVGID_1_" d="M53.257,36.241c2.299-0.029,4.48-0.365,6.41-1.014c0.486-0.164,0.949-0.344,1.389-0.541
					c-0.537,1.312-1.327,2.406-2.354,3.219c-2.029,1.496-4.423,2.52-7.022,2.912C52.331,39.69,52.855,38.106,53.257,36.241
					 M42.441,39.429c-0.048-0.041-0.1-0.076-0.158-0.105c-0.904-0.439-1.27-2.455-0.799-5.539c1.737,0.781,3.63,1.4,5.618,1.826
					c1.507,0.322,3.009,0.521,4.476,0.598c-0.72,3.129-1.642,4.771-2.253,4.771c-0.04,0-0.077,0.006-0.114,0.012
					C46.789,40.974,44.493,40.417,42.441,39.429 M34.048,29.464c-0.139-0.529-0.226-1.068-0.262-1.615
					c0.543,0.773,1.207,1.529,1.995,2.258c1.191,1.102,2.605,2.086,4.181,2.93c-0.321,1.801-0.412,3.43-0.209,4.746
					C37.037,35.728,35.005,32.821,34.048,29.464 M54.283,25.093c0-0.636-0.01-1.274-0.028-1.911c2.025-0.134,3.9-0.661,5.436-1.544
					c1.421,2.813,2.185,5.779,2.178,8.58c-0.001,0.811-0.07,1.582-0.2,2.311c-0.731,0.447-1.573,0.838-2.52,1.156
					c-1.681,0.564-3.575,0.873-5.582,0.926C54.049,31.716,54.283,28.356,54.283,25.093 M47.443,34.021
					c-2.016-0.434-3.921-1.072-5.646-1.885c0.566-2.547,1.621-5.637,3.293-9.064c0.243-0.497,0.491-0.984,0.744-1.463
					c1.169,0.525,2.441,0.941,3.775,1.226c1.013,0.217,2.026,0.335,3.019,0.37c0.018,0.61,0.027,1.241,0.027,1.889
					c0,3.834-0.307,7.016-0.749,9.5C50.45,34.53,48.951,34.341,47.443,34.021 M36.887,28.911c-1.383-1.277-2.333-2.631-2.817-3.974
					c0.383-1.506,1.126-3.017,2.219-4.464c1.037-1.373,2.326-2.61,3.807-3.673c0.426,0.771,1.025,1.524,1.786,2.238
					c0.723,0.678,1.567,1.292,2.502,1.83c-0.258,0.488-0.51,0.985-0.755,1.49c-1.444,2.959-2.624,6.135-3.315,9.016
					C39.028,30.649,37.872,29.823,36.887,28.911 M53.177,13.784c1.852,1.378,3.547,3.155,4.966,5.234
					c0.269,0.395,0.522,0.795,0.764,1.2c-1.301,0.751-2.945,1.201-4.72,1.327C54.037,18.736,53.705,16.033,53.177,13.784
					 M49.949,21.242c-1.178-0.251-2.298-0.613-3.329-1.065c1.519-2.657,3.18-4.967,4.819-6.685c0.512,2.015,0.941,4.723,1.123,8.082
					C51.7,21.538,50.822,21.429,49.949,21.242 M42.993,17.85c-0.673-0.63-1.185-1.287-1.529-1.947
					c1.525-0.918,3.213-1.666,5.011-2.206c1.069-0.322,2.152-0.561,3.232-0.725c-1.559,1.746-3.115,3.965-4.542,6.471
					C44.352,18.97,43.62,18.438,42.993,17.85 M39.493,12.663c-0.022,0.083-0.046,0.166-0.063,0.252
					c-0.165,0.768-0.146,1.554,0.048,2.335c-1.751,1.208-3.275,2.637-4.488,4.242c-0.369,0.489-0.7,0.987-1,1.49
					C34.891,17.647,36.854,14.748,39.493,12.663 M41.02,13.254c0.18-0.845,0.688-1.599,1.474-2.224
					c1.9-0.567,4.111-0.431,6.434,0.42c-0.978,0.17-1.956,0.395-2.92,0.687c-1.796,0.539-3.49,1.275-5.042,2.171
					C40.93,13.952,40.947,13.599,41.02,13.254 M54.226,11.11c0.559-0.361,1.073-0.61,1.503-0.712
					c0.817,0.328,1.626,0.745,2.393,1.273C56.891,11.363,55.582,11.176,54.226,11.11 M51.484,9.366
					c0.661,0.074,1.365,0.188,2.089,0.356c-0.454,0.243-0.924,0.548-1.401,0.914C51.959,10.157,51.73,9.731,51.484,9.366
					 M49.72,10.006c-0.736-0.282-1.464-0.5-2.182-0.657c0.575-0.064,1.158-0.101,1.75-0.101c0.277,0.003,0.617,0.336,0.973,0.98
					C50.083,10.152,49.901,10.075,49.72,10.006 M31.81,25.12c0,1.664,0.239,3.271,0.675,4.797c0.027,0.105,0.051,0.205,0.082,0.309
					c0.006,0.018,0.015,0.037,0.022,0.057c2.208,7.137,8.87,12.338,16.723,12.338c3.633,0,7.011-1.113,9.811-3.016
					c0.028-0.016,0.056-0.029,0.082-0.047c0.166-0.113,0.327-0.23,0.483-0.355c3.221-2.381,5.598-5.834,6.6-9.832
					c0.056-0.184,0.105-0.371,0.146-0.559c0.009-0.045,0.012-0.09,0.015-0.133c0.238-1.15,0.363-2.34,0.363-3.559
					c0-2.361-0.462-4.654-1.375-6.811c-0.175-0.415-0.653-0.607-1.066-0.433c-0.415,0.174-0.608,0.653-0.433,1.066
					c0.827,1.955,1.247,4.034,1.247,6.178c0,1.312-0.164,2.59-0.466,3.811c-0.24,0.771-0.663,1.484-1.247,2.131
					c0.014-0.277,0.024-0.557,0.024-0.84c0.006-3.125-0.857-6.421-2.459-9.522c1.175-1.008,1.923-2.254,2.18-3.648
					c0.082-0.442-0.21-0.866-0.652-0.947c-0.442-0.083-0.867,0.21-0.948,0.652c-0.17,0.921-0.648,1.767-1.397,2.485
					c-0.233-0.385-0.475-0.766-0.731-1.142c-1.429-2.095-3.126-3.907-4.984-5.353c2.452,0.161,4.719,0.755,6.544,1.775
					c0.286,0.164,0.667,0.159,0.934-0.065c0.346-0.288,0.392-0.802,0.104-1.147c-2.622-3.668-7.157-5.69-12.774-5.69
					C39.662,7.62,31.81,15.471,31.81,25.12"/>
			</defs>
			<clipPath id="SVGID_2_">
				<use xlink:href="#SVGID_1_"  overflow="visible"/>
			</clipPath>
			
				<radialGradient id="SVGID_3_" cx="-127.3364" cy="-310.5278" r="0.4791" gradientTransform="matrix(60.7425 0 0 60.7427 7799.9849 18876.4883)" gradientUnits="userSpaceOnUse">
				<stop  offset="0" style="stop-color:#FFFFFF"/>
				<stop  offset="0.0816" style="stop-color:#EBEBEC"/>
				<stop  offset="0.2493" style="stop-color:#BFC1C3"/>
				<stop  offset="0.4867" style="stop-color:#7D7F82"/>
				<stop  offset="0.544" style="stop-color:#6D6E71"/>
				<stop  offset="1" style="stop-color:#000000"/>
			</radialGradient>
			<rect x="31.81" y="7.62" clip-path="url(#SVGID_2_)" fill="url(#SVGID_3_)" width="35.002" height="35"/>
		</g>
	</g>
	<path d="M206.304,20.004c2.588,0,4.014,1.252,4.014,3.526c0,2.145-1.402,3.426-3.754,3.426h-1.648v3.281h-2.18V20.004H206.304z
		 M204.916,25.177h1.305c1.262,0,1.902-0.555,1.902-1.647c0-1.108-0.701-1.717-1.975-1.717h-1.232V25.177z M198.726,26.14
		c0,1.502-0.576,2.232-1.762,2.232c-1.197,0-1.803-0.752-1.803-2.232v-6.135h-2.182v5.989c-0.006,1.465,0.359,2.576,1.086,3.307
		c0.676,0.678,1.65,1.023,2.898,1.023c1.799,0,3.941-0.752,3.941-4.328v-5.99h-2.18V26.14L198.726,26.14z M187.035,19.918
		c2.211,0,4.572,1.371,4.572,5.216c0,3.825-2.361,5.188-4.572,5.188c-2.215,0-4.586-1.363-4.586-5.188
		C182.449,21.288,184.82,19.918,187.035,19.918 M187.035,28.415c0.867,0,2.32-0.426,2.32-3.28c0-2.854-1.453-3.28-2.32-3.28
		c-1.504,0-2.332,1.165-2.332,3.28C184.703,27.251,185.531,28.415,187.035,28.415 M180.201,27.136
		c0.359,0.73,0.67,1.365,1.391,1.365h0.518v1.684l-0.074,0.02c-0.016,0.004-0.395,0.104-1.059,0.104
		c-1.723,0-2.25-1.186-2.717-2.229c-0.381-0.857-0.713-1.598-1.611-1.598h-0.959v3.756h-2.18V20.004h3.625
		c2.65,0,3.885,1.033,3.885,3.252c0,1.373-0.824,2.221-1.646,2.583C179.738,26.192,179.972,26.671,180.201,27.136 M175.691,24.79
		h1.215c1.211,0,1.963-0.566,1.963-1.475c0-0.956-0.658-1.503-1.803-1.503h-1.375V24.79z M167.708,26.497h2.25v0.113
		c0,0.662-0.234,1.775-1.805,1.775c-1.479,0-2.361-1.217-2.361-3.252c0-2.083,0.846-3.28,2.318-3.28c1.754,0,1.816,1.774,1.818,1.85
		l0.004,0.115l2.033-0.318v-0.087c0-0.739-0.658-3.497-3.883-3.497c-2.889,0-4.543,1.9-4.543,5.216c0,3.248,1.709,5.189,4.572,5.189
		c2.877,0,3.896-2.008,3.896-3.727v-1.777h-4.299v1.678H167.708z M161.181,20.004h-2.592l-3.385,4.606v-4.606h-2.209v10.233h2.209
		v-4.708l3.471,4.708h2.621l-3.959-5.159L161.181,20.004z M148.856,26.325l-3.579-6.321h-2.21v10.233h2.181v-6.104l3.564,6.104
		h2.223V20.004h-2.179V26.325L148.856,26.325z M138.752,20.071l3.73,10.167h-2.265l-0.874-2.508h-3.409l-0.845,2.508h-2.282
		l3.757-10.233h2.162L138.752,20.071z M137.639,22.794l-1.104,3.228h2.235L137.639,22.794z M130.783,24.844
		c0.787,0.226,1.814,0.946,1.814,2.483c0,1.85-1.311,2.91-3.597,2.91h-4.314V20.004h3.898c2.216,0,3.34,0.926,3.34,2.752
		C131.924,24.169,131.281,24.669,130.783,24.844 M128.355,24.188c0.908,0,1.332-0.383,1.332-1.203c0-0.779-0.54-1.174-1.604-1.174
		h-1.217v2.376H128.355z M126.867,28.429h1.703c1.114,0,1.633-0.418,1.633-1.316c0-1.101-0.91-1.332-1.676-1.332h-1.66V28.429z
		 M115.705,20.004c3.186,0,5.087,1.977,5.087,5.288c0,3.143-1.697,4.945-4.657,4.945h-3.469V20.004H115.705z M114.846,28.429h1.274
		c1.569,0,2.507-1.184,2.507-3.166c0-2.29-0.993-3.451-2.951-3.451h-0.83V28.429z M107.225,20.004h-2.18v10.233h6.607v-1.809h-4.427
		V20.004z M102.107,27.136c0.36,0.73,0.672,1.365,1.392,1.365h0.518v1.684l-0.076,0.02c-0.015,0.006-0.393,0.105-1.058,0.105
		c-1.721,0-2.25-1.186-2.715-2.23c-0.382-0.855-0.712-1.598-1.612-1.598h-0.959v3.756h-2.18V20.004h3.626
		c2.649,0,3.884,1.033,3.884,3.252c0,1.373-0.824,2.221-1.646,2.583C101.644,26.192,101.88,26.671,102.107,27.136 M97.597,24.79
		h1.217c1.209,0,1.961-0.566,1.961-1.475c0-0.956-0.658-1.503-1.804-1.503h-1.375V24.79z M89.601,19.918
		c2.211,0,4.573,1.371,4.573,5.216c0,3.825-2.361,5.188-4.573,5.188c-2.217,0-4.585-1.363-4.585-5.188
		C85.017,21.288,87.385,19.918,89.601,19.918 M89.601,28.415c0.867,0,2.32-0.426,2.32-3.28c0-2.854-1.453-3.28-2.32-3.28
		c-1.504,0-2.333,1.165-2.333,3.28C87.268,27.251,88.097,28.415,89.601,28.415 M82.244,20.004h2.465l-2.938,10.233H79.31
		l-1.787-6.417l-1.814,6.417h-2.46L70.31,20.004h2.537l1.719,7.467l2.063-7.467h1.832l1.994,7.467L82.244,20.004z"/>
</g>
</svg>
