<?xml version="1.0" encoding="utf-8"?>
<!-- Generator: Adobe Illustrator 16.0.0, SVG Export Plug-In . SVG Version: 6.00 Build 0)  -->
<!DOCTYPE svg PUBLIC "-//W3C//DTD SVG 1.1//EN" "http://www.w3.org/Graphics/SVG/1.1/DTD/svg11.dtd">
<svg version="1.1" id="Layer_1" xmlns="http://www.w3.org/2000/svg" xmlns:xlink="http://www.w3.org/1999/xlink" x="0px" y="0px"
	 width="182px" height="36px" viewBox="27.681 3.81 182 36" enable-background="new 27.681 3.81 182 36" xml:space="preserve">
<g>
	<g>
		<g>
			<defs>
				<path id="SVGID_1_" d="M49.676,33.267c2.357-0.029,4.594-0.374,6.574-1.039c0.498-0.168,0.974-0.354,1.424-0.555
					c-0.551,1.345-1.36,2.467-2.415,3.301c-2.081,1.532-4.536,2.583-7.201,2.984C48.724,36.806,49.262,35.178,49.676,33.267
					 M38.583,36.535c-0.049-0.041-0.102-0.079-0.162-0.107c-0.927-0.452-1.302-2.519-0.819-5.68
					c1.782,0.801,3.722,1.436,5.761,1.871c1.545,0.33,3.085,0.534,4.59,0.613c-0.738,3.208-1.684,4.893-2.311,4.893
					c-0.04,0-0.079,0.007-0.117,0.013C43.041,38.121,40.687,37.55,38.583,36.535 M29.976,26.316
					c-0.143-0.542-0.232-1.095-0.269-1.657c0.558,0.794,1.237,1.568,2.046,2.316c1.222,1.128,2.672,2.138,4.288,3.004
					c-0.33,1.846-0.423,3.519-0.215,4.867C33.041,32.74,30.957,29.759,29.976,26.316 M50.727,21.833c0-0.652-0.01-1.307-0.029-1.959
					c2.077-0.138,4-0.678,5.574-1.583c1.458,2.884,2.24,5.927,2.234,8.799c-0.001,0.832-0.073,1.623-0.205,2.37
					c-0.75,0.459-1.613,0.857-2.584,1.185c-1.724,0.58-3.666,0.896-5.725,0.949C50.488,28.627,50.727,25.182,50.727,21.833
					 M43.713,30.988c-2.068-0.443-4.022-1.1-5.791-1.931c0.581-2.614,1.663-5.781,3.377-9.297c0.249-0.509,0.503-1.01,0.762-1.5
					c1.199,0.538,2.504,0.965,3.872,1.257c1.039,0.223,2.079,0.344,3.096,0.379c0.019,0.626,0.027,1.271,0.027,1.937
					c0,3.931-0.314,7.194-0.768,9.744C46.796,31.512,45.259,31.317,43.713,30.988 M32.887,25.75c-1.418-1.31-2.393-2.698-2.89-4.076
					c0.394-1.544,1.156-3.094,2.277-4.579c1.063-1.408,2.386-2.676,3.903-3.766c0.438,0.791,1.051,1.563,1.832,2.295
					c0.742,0.695,1.607,1.325,2.566,1.876c-0.264,0.501-0.522,1.01-0.774,1.528c-1.481,3.035-2.69,6.292-3.4,9.246
					C35.082,27.531,33.897,26.685,32.887,25.75 M49.593,10.237c1.898,1.413,3.638,3.236,5.093,5.368
					c0.276,0.404,0.536,0.815,0.783,1.23c-1.333,0.771-3.021,1.232-4.84,1.361C50.475,15.315,50.134,12.543,49.593,10.237
					 M46.283,17.885c-1.208-0.257-2.356-0.628-3.414-1.093c1.558-2.725,3.261-5.094,4.942-6.855
					c0.525,2.066,0.965,4.844,1.151,8.288C48.077,18.188,47.177,18.077,46.283,17.885 M39.15,14.406
					c-0.691-0.646-1.215-1.32-1.568-1.997c1.564-0.941,3.295-1.708,5.139-2.263c1.097-0.33,2.207-0.574,3.314-0.743
					c-1.598,1.791-3.194,4.066-4.657,6.636C40.542,15.556,39.793,15.009,39.15,14.406 M35.56,9.087
					c-0.023,0.084-0.047,0.17-0.066,0.258c-0.169,0.787-0.149,1.594,0.049,2.394c-1.796,1.239-3.358,2.704-4.602,4.35
					c-0.379,0.501-0.718,1.013-1.025,1.528C30.841,14.199,32.853,11.225,35.56,9.087 M37.126,9.693
					c0.185-0.866,0.706-1.64,1.511-2.28c1.949-0.582,4.216-0.442,6.599,0.43c-1.003,0.174-2.006,0.406-2.995,0.705
					C40.4,9.1,38.662,9.856,37.07,10.774C37.034,10.409,37.051,10.047,37.126,9.693 M50.669,7.494
					c0.573-0.371,1.101-0.625,1.542-0.73c0.837,0.335,1.667,0.764,2.454,1.306C53.402,7.754,52.059,7.562,50.669,7.494
					 M47.857,5.707C48.534,5.783,49.257,5.899,50,6.072c-0.465,0.25-0.947,0.562-1.438,0.937
					C48.344,6.516,48.109,6.082,47.857,5.707 M46.048,6.362c-0.755-0.289-1.501-0.513-2.237-0.673
					c0.59-0.066,1.187-0.104,1.795-0.104c0.284,0.003,0.633,0.345,0.998,1.006C46.419,6.512,46.234,6.434,46.048,6.362
					 M27.681,21.862c0,1.706,0.245,3.355,0.692,4.92c0.027,0.105,0.053,0.21,0.084,0.315c0.006,0.019,0.015,0.037,0.022,0.058
					c2.264,7.321,9.096,12.654,17.15,12.654c3.726,0,7.189-1.142,10.061-3.092c0.029-0.017,0.058-0.031,0.084-0.049
					c0.17-0.116,0.335-0.238,0.495-0.366c3.303-2.439,5.741-5.982,6.769-10.081c0.058-0.188,0.108-0.38,0.15-0.574
					c0.01-0.047,0.013-0.091,0.015-0.137c0.245-1.179,0.373-2.399,0.373-3.647c0-2.422-0.474-4.773-1.411-6.985
					c-0.18-0.425-0.669-0.624-1.094-0.443c-0.425,0.178-0.623,0.669-0.444,1.093c0.849,2.005,1.279,4.137,1.279,6.335
					c0,1.347-0.167,2.655-0.478,3.908c-0.247,0.79-0.68,1.521-1.279,2.185c0.015-0.283,0.024-0.569,0.025-0.862
					c0.007-3.202-0.879-6.584-2.521-9.763c1.204-1.034,1.973-2.312,2.236-3.741c0.084-0.453-0.216-0.888-0.669-0.972
					c-0.454-0.085-0.889,0.215-0.973,0.669c-0.174,0.945-0.665,1.812-1.433,2.548c-0.239-0.395-0.487-0.786-0.75-1.171
					c-1.465-2.148-3.206-4.006-5.111-5.489c2.515,0.166,4.839,0.775,6.711,1.821c0.293,0.167,0.683,0.162,0.958-0.067
					c0.354-0.295,0.402-0.823,0.105-1.177c-2.689-3.761-7.34-5.836-13.1-5.836C35.733,3.915,27.681,11.966,27.681,21.862"/>
			</defs>
			<clipPath id="SVGID_2_">
				<use xlink:href="#SVGID_1_"  overflow="visible"/>
			</clipPath>
			
				<radialGradient id="SVGID_3_" cx="-136.1116" cy="-310.5869" r="0.4894" gradientTransform="matrix(60.7425 0 0 60.7427 8329.7441 18876.4883)" gradientUnits="userSpaceOnUse">
				<stop  offset="0" style="stop-color:#FFFFFF"/>
				<stop  offset="0.0598" style="stop-color:#E7F6FD"/>
				<stop  offset="0.1829" style="stop-color:#AFE2FA"/>
				<stop  offset="0.3589" style="stop-color:#37C6F4"/>
				<stop  offset="0.544" style="stop-color:#00AEEF"/>
				<stop  offset="1" style="stop-color:#002F54"/>
			</radialGradient>
			<rect x="27.681" y="3.915" clip-path="url(#SVGID_2_)" fill="url(#SVGID_3_)" width="35.895" height="35.894"/>
		</g>
	</g>
	<g>
		<path fill="#00AEEF" d="M70.711,32.81v-6.097h1.202v6.097H70.711z"/>
		<path fill="#00AEEF" d="M72.985,32.81v-6.097h2.307c1.247,0,1.968,0.472,1.968,1.61c0,1.081-0.643,1.266-0.949,1.266v0.016
			c0.409,0,1.36,0.358,1.36,1.495c0,1.274-1.002,1.71-2.126,1.71H72.985z M75.154,29.258c0.652,0,0.87-0.323,0.87-0.793
			c0-0.489-0.323-0.775-1.038-0.775h-0.801v1.568H75.154z M75.282,31.834c0.602,0,1.056-0.189,1.056-0.861
			c0-0.628-0.463-0.87-1.08-0.87h-1.072v1.731H75.282z"/>
		<path fill="#00AEEF" d="M83.485,32.793c0,0-0.225,0.06-0.627,0.06c-1.847,0-1.341-2.325-2.631-2.325h-0.642v2.282h-1.202v-6.097
			h2.141c1.498,0,2.3,0.55,2.3,1.918c0,0.897-0.584,1.373-1.055,1.549c0.627,0.514,0.663,1.697,1.463,1.697h0.252V32.793z
			 M80.385,29.623c0.724,0,1.255-0.333,1.255-0.958c0-0.609-0.427-0.978-1.158-0.978h-0.897v1.936H80.385z"/>
		<path fill="#00AEEF" d="M84.015,32.81v-6.097h1.786c1.601,0,3.03,0.864,3.03,3.154c0,2.168-1.29,2.942-2.771,2.942H84.015z
			 M86.051,31.834c0.934,0,1.585-0.679,1.585-1.985c0-1.351-0.573-2.161-1.854-2.161h-0.566v4.146H86.051z"/>
		<path fill="#00AEEF" d="M92.402,31.417c-0.627,0-1.123-0.505-1.123-1.133c0-0.627,0.496-1.131,1.123-1.131
			c0.626,0,1.131,0.504,1.131,1.131C93.533,30.912,93.028,31.417,92.402,31.417z"/>
		<path fill="#00AEEF" d="M96.258,32.81v-6.097h1.202v6.097H96.258z"/>
		<path fill="#00AEEF" d="M98.529,32.81v-6.097h1.785c1.603,0,3.031,0.864,3.031,3.154c0,2.168-1.288,2.942-2.769,2.942H98.529z
			 M100.568,31.834c0.933,0,1.587-0.679,1.587-1.985c0-1.351-0.575-2.161-1.855-2.161h-0.566v4.146H100.568z"/>
		<path fill="#00AEEF" d="M107.318,31.288h-2.163l-0.514,1.521h-1.254l2.239-6.096h1.227l2.239,6.096h-1.245L107.318,31.288z
			 M105.479,30.372h1.533l-0.775-2.213L105.479,30.372z"/>
	</g>
	<g>
		<path fill="#002F54" d="M67.526,11.917h9.062v1.859H73.26V23.1h-2.403v-9.324h-3.33V11.917z"/>
		<path fill="#002F54" d="M77.861,23.1V11.917h2.402v4.414h4.229v-4.414h2.431V23.1h-2.4v-4.911h-4.26V23.1H77.861z"/>
		<path fill="#002F54" d="M88.879,11.917h7.498v1.859h-5.095v2.618h4.771v1.858h-4.771v2.99h5.266V23.1h-7.668V11.917z"/>
		<path fill="#002F54" d="M108.306,11.917h2.709l1.952,8.411h0.031l1.798-8.411h2.292L114.238,23.1h-2.663l-2.013-8.52h-0.031
			l-2.171,8.52h-2.724l-2.726-11.183h2.479l1.718,8.411h0.033L108.306,11.917z"/>
		<path fill="#002F54" d="M117.904,17.509c0-3.299,1.672-5.826,5.373-5.826c3.7,0,5.375,2.526,5.375,5.826s-1.675,5.822-5.375,5.822
			C119.574,23.331,117.904,20.808,117.904,17.509z M120.457,17.509c0,1.918,0.45,4.087,2.819,4.087c2.37,0,2.82-2.169,2.82-4.087
			c0-1.922-0.45-4.092-2.82-4.092C120.907,13.417,120.457,15.588,120.457,17.509z"/>
		<path fill="#002F54" d="M132.638,23.1h-2.402V11.917h4.754c1.922,0.015,3.889,0.634,3.889,2.913c0,1.455-0.945,2.417-2.323,2.71
			v0.032c1.844,0.201,1.844,1.331,2.045,2.881c0.11,0.713,0.201,2.03,0.65,2.647h-2.649c-0.2-0.99-0.31-1.997-0.417-3.005
			c-0.063-0.618-0.219-1.47-1.007-1.5h-2.539V23.1L132.638,23.1z M132.638,16.734h2.011c1.056-0.018,1.674-0.542,1.674-1.535
			c0-0.99-0.618-1.409-1.674-1.424h-2.011V16.734z"/>
		<path fill="#002F54" d="M140.712,23.1V11.917h2.402v9.325h4.848V23.1H140.712z"/>
		<path fill="#002F54" d="M149.265,11.917h3.812c3.483-0.03,5.652,1.703,5.652,5.592c0,3.887-2.169,5.621-5.652,5.59h-3.812V11.917
			L149.265,11.917z M151.665,21.241h1.239c2.852,0.031,3.271-1.953,3.271-3.732c0-1.782-0.419-3.764-3.271-3.733h-1.239V21.241z"/>
		<path fill="#002F54" d="M164.807,23.1V11.917h4.198c1.998-0.124,4.043,0.714,4.043,2.897c0,1.223-0.854,2.076-1.968,2.446v0.032
			c1.411,0.295,2.462,1.271,2.462,2.911c0,2.215-2.79,3.022-4.507,2.897H164.807z M169.082,21.241c1.131,0,1.905-0.202,1.905-1.487
			s-0.773-1.487-1.905-1.487h-1.876v2.975H169.082z M169.082,16.41c1.007,0,1.563-0.419,1.563-1.317c0-0.9-0.557-1.316-1.563-1.316
			h-1.876v2.634L169.082,16.41L169.082,16.41z"/>
		<path fill="#002F54" d="M174.292,23.1l4.044-11.183h2.85l3.886,11.183h-2.414l-0.806-2.37h-4.43l-0.838,2.37H174.292z
			 M181.247,18.872l-1.533-4.771h-0.032l-1.641,4.771H181.247z"/>
		<path fill="#002F54" d="M192.993,23.1l-4.415-9.294l-0.031,0.032v9.262h-2.245V11.917h3.561l4.262,8.798l0.03-0.033v-8.766h2.246
			V23.1H192.993z"/>
		<path fill="#002F54" d="M200.773,16.75h0.031l3.718-4.833h2.803l-4.105,5.003l4.462,6.18h-2.989l-3.888-5.7h-0.031v5.7h-2.4
			V11.917h2.4V16.75z"/>
	</g>
</g>
</svg>
